<?xml version="1.0" encoding="utf-8"?>
<!-- Generator: Adobe Illustrator 18.1.1, SVG Export Plug-In . SVG Version: 6.00 Build 0)  -->
<svg version="1.1" id="Capa_1" xmlns="http://www.w3.org/2000/svg" xmlns:xlink="http://www.w3.org/1999/xlink" x="0px" y="0px"
	 viewBox="-109 235 100 100" enable-background="new -109 235 100 100" xml:space="preserve">
<g id="Capa_2">
	<g>
		<polygon fill="#CB4948" points="-57.2,292.6 -57.2,268.9 -58.3,268.9 -58.3,292.6 -65.6,285.2 -66.4,286 -57.7,294.7 -49,286 
			-49.8,285.2 		"/>
		<path fill="#CB4948" d="M-36.4,257.3c-0.1,0-0.2,0-0.3,0c-1.1-7.5-7.4-13-15.1-13c-6.5,0-12.3,4.2-14.4,10.3
			c-1.1-0.3-2.3-0.5-3.4-0.5c-6,0-11.1,4.4-12,10.3c-0.3,0-0.6-0.1-0.9-0.1c-4.7,0-8.6,3.8-8.6,8.6c0,4.7,3.8,8.6,8.6,8.6h10.6v-1.1
			h-10.6c-4.1,0-7.5-3.4-7.5-7.5s3.3-7.5,7.5-7.5c0.4,0,0.8,0,1.3,0.1l0.6,0.1l0.1-0.6c0.6-5.6,5.3-9.9,10.9-9.9
			c1.2,0,2.4,0.2,3.6,0.6l0.5,0.2l0.2-0.5c1.8-5.9,7.3-10.1,13.5-10.1c7.2,0,13.3,5.4,14,12.6l0.1,0.5l0.5,0c0.2,0,0.5,0,0.7,0
			c6.1,0,11,4.9,11,11c0,6.1-4.9,11-11,11h-7.3v1.1h7.3c6.7,0,12.1-5.4,12.1-12.1C-24.4,262.7-29.8,257.3-36.4,257.3z"/>
	</g>
</g>
</svg>
